<svg width="21" height="16" viewBox="0 0 21 16" fill="none" xmlns="http://www.w3.org/2000/svg">
<path opacity="0.5" d="M3.31579 0H17.6842C18.5636 0 19.407 0.337142 20.0288 0.937258C20.6507 1.53737 21 2.35131 21 3.2V12.8C21 13.6487 20.6507 14.4626 20.0288 15.0627C19.407 15.6629 18.5636 16 17.6842 16H3.31579C2.43639 16 1.593 15.6629 0.971172 15.0627C0.349341 14.4626 0 13.6487 0 12.8V3.2C0 2.35131 0.349341 1.53737 0.971172 0.937258C1.593 0.337142 2.43639 0 3.31579 0ZM3.31579 1.06667C2.76316 1.06667 2.27684 1.248 1.90105 1.568L10.5 6.93333L19.0989 1.568C18.7232 1.248 18.2368 1.06667 17.6842 1.06667H3.31579ZM10.5 8.224L1.24895 2.432C1.16053 2.66667 1.10526 2.93333 1.10526 3.2V12.8C1.10526 13.3658 1.33816 13.9084 1.75271 14.3085C2.16727 14.7086 2.72952 14.9333 3.31579 14.9333H17.6842C18.2705 14.9333 18.8327 14.7086 19.2473 14.3085C19.6618 13.9084 19.8947 13.3658 19.8947 12.8V3.2C19.8947 2.93333 19.8395 2.66667 19.7511 2.432L10.5 8.224Z" fill="white"/>
</svg>
