<svg width="20" height="20" viewBox="0 0 20 20" fill="none" xmlns="http://www.w3.org/2000/svg">
<path d="M18 0C19.1 0 20 0.9 20 2V14C20 15.1 19.1 16 18 16H4L0 20L0.00976562 2C0.00976562 0.9 0.9 0 2 0H18ZM2 2V15.1699L3.16992 14H18V2H2ZM16 12H4V10H16V12ZM16 9H4V7H16V9ZM16 6H4V4H16V6Z" fill="white" fill-opacity="0.75"/>
<path d="M18 0C19.1 0 20 0.9 20 2V14C20 15.1 19.1 16 18 16H4L0 20L0.00976562 2C0.00976562 0.9 0.9 0 2 0H18ZM2 2V15.1699L3.16992 14H18V2H2ZM16 12H4V10H16V12ZM16 9H4V7H16V9ZM16 6H4V4H16V6Z" stroke="black"/>
</svg>
