<svg width="16" height="20" viewBox="0 0 16 20" fill="none" xmlns="http://www.w3.org/2000/svg">
<path opacity="0.5" d="M1 18.027V16.9628C1 14.9872 1.7375 13.0924 3.05025 11.6954C4.36301 10.2984 6.14348 9.51351 8 9.51351M8 9.51351C9.85652 9.51351 11.637 10.2984 12.9497 11.6954C14.2625 13.0924 15 14.9872 15 16.9628V18.027M8 9.51351C9.06087 9.51351 10.0783 9.06504 10.8284 8.26674C11.5786 7.46844 12 6.38572 12 5.25676C12 4.12779 11.5786 3.04507 10.8284 2.24677C10.0783 1.44848 9.06087 1 8 1C6.93913 1 5.92172 1.44848 5.17157 2.24677C4.42143 3.04507 4 4.12779 4 5.25676C4 6.38572 4.42143 7.46844 5.17157 8.26674C5.92172 9.06504 6.93913 9.51351 8 9.51351Z" stroke="white" stroke-width="2" stroke-linecap="round" stroke-linejoin="round"/>
</svg>
