<svg width="16" height="19" viewBox="0 0 16 19" fill="none" xmlns="http://www.w3.org/2000/svg">
<g opacity="0.5">
<path d="M4.21094 0C4.54579 0.000129204 4.86673 0.158283 5.10352 0.439453C5.3404 0.720758 5.47363 1.10218 5.47363 1.5C5.47363 2.67 5.62555 3.82016 5.92871 4.91016C6.0802 5.47009 5.95362 6.05048 5.6084 6.44043L4.4043 7.87012C5.54751 10.3578 7.26937 12.4022 9.36426 13.7598L10.5771 12.3203C10.7417 12.1257 10.9482 11.9881 11.1738 11.9229C11.3992 11.8578 11.6352 11.8673 11.8564 11.9502C12.7828 12.3202 13.752 12.5 14.7373 12.5C15.0721 12.5001 15.3931 12.6583 15.6299 12.9395C15.8668 13.2208 16 13.6022 16 14V17.5C16 17.8978 15.8668 18.2792 15.6299 18.5605C15.3931 18.8417 15.0721 18.9999 14.7373 19C6.61099 19 0 11.15 0 1.5C0 1.10218 0.133229 0.720758 0.370117 0.439453C0.606896 0.158282 0.927854 0.000145388 1.2627 0H4.21094ZM1.2627 1C1.15126 1.00015 1.04466 1.05295 0.96582 1.14648C0.886858 1.24025 0.841797 1.36739 0.841797 1.5C0.841797 10.6 7.07415 18 14.7373 18C14.8487 17.9999 14.9553 17.947 15.0342 17.8535C15.1131 17.7597 15.1582 17.6326 15.1582 17.5V14C15.1582 13.8674 15.1131 13.7403 15.0342 13.6465C14.9553 13.553 14.8487 13.5001 14.7373 13.5C13.6594 13.5 12.6062 13.3004 11.5957 12.9004C11.4441 12.8504 11.2839 12.8903 11.166 13.0303L9.52441 15C6.79599 13.33 4.75764 10.9097 3.36816 7.67969L5.02734 5.71973C5.16196 5.55975 5.171 5.35968 5.12891 5.21973C4.80051 4.02977 4.63184 2.77995 4.63184 1.5C4.63184 1.36739 4.58678 1.24025 4.50781 1.14648C4.42896 1.05295 4.32238 1.00013 4.21094 1H1.2627Z" fill="white"/>
<path d="M4.21094 0C4.54579 0.000129204 4.86673 0.158283 5.10352 0.439453C5.3404 0.720758 5.47363 1.10218 5.47363 1.5C5.47363 2.67 5.62555 3.82016 5.92871 4.91016C6.0802 5.47009 5.95362 6.05048 5.6084 6.44043L4.4043 7.87012C5.54751 10.3578 7.26937 12.4022 9.36426 13.7598L10.5771 12.3203C10.7417 12.1257 10.9482 11.9881 11.1738 11.9229C11.3992 11.8578 11.6352 11.8673 11.8564 11.9502C12.7828 12.3202 13.752 12.5 14.7373 12.5C15.0721 12.5001 15.3931 12.6583 15.6299 12.9395C15.8668 13.2208 16 13.6022 16 14V17.5C16 17.8978 15.8668 18.2792 15.6299 18.5605C15.3931 18.8417 15.0721 18.9999 14.7373 19C6.61099 19 0 11.15 0 1.5C0 1.10218 0.133229 0.720758 0.370117 0.439453C0.606896 0.158282 0.927854 0.000145388 1.2627 0H4.21094ZM1.2627 1C1.15126 1.00015 1.04466 1.05295 0.96582 1.14648C0.886858 1.24025 0.841797 1.36739 0.841797 1.5C0.841797 10.6 7.07415 18 14.7373 18C14.8487 17.9999 14.9553 17.947 15.0342 17.8535C15.1131 17.7597 15.1582 17.6326 15.1582 17.5V14C15.1582 13.8674 15.1131 13.7403 15.0342 13.6465C14.9553 13.553 14.8487 13.5001 14.7373 13.5C13.6594 13.5 12.6062 13.3004 11.5957 12.9004C11.4441 12.8504 11.2839 12.8903 11.166 13.0303L9.52441 15C6.79599 13.33 4.75764 10.9097 3.36816 7.67969L5.02734 5.71973C5.16196 5.55975 5.171 5.35968 5.12891 5.21973C4.80051 4.02977 4.63184 2.77995 4.63184 1.5C4.63184 1.36739 4.58678 1.24025 4.50781 1.14648C4.42896 1.05295 4.32238 1.00013 4.21094 1H1.2627Z" stroke="white"/>
</g>
</svg>
