<svg width="422" height="117" viewBox="0 0 422 117" fill="none" xmlns="http://www.w3.org/2000/svg">
<path d="M97.9368 77V40.808H106.101V77H97.9368ZM86.4448 47.412V40.288H117.593V47.412H86.4448ZM114.876 77L129.436 40.288H136.82L151.224 77H142.592L131.568 46.528H134.532L123.352 77H114.876ZM123.144 70.344V63.688H143.164V70.344H123.144ZM176.831 77L166.587 60.62H165.599L151.455 40.288H161.179L171.267 55.68H172.255L186.399 77H176.831ZM150.779 77L164.351 57.344L170.643 60.88L160.087 77H150.779ZM172.567 59.684L166.275 56.148L176.467 40.288H185.775L172.567 59.684ZM189.995 77V40.288H198.159V77H189.995Z" fill="#5FD3C7"/>
<path d="M205.23 77V40.288H213.394V77H205.23ZM211.47 62.596V55.576H229.826V62.596H211.47ZM211.47 47.308V40.288H230.658V47.308H211.47ZM230.2 77L244.76 40.288H252.144L266.548 77H257.916L246.892 46.528H249.856L238.676 77H230.2ZM238.468 70.344V63.688H258.488V70.344H238.468ZM276.673 61.868V55.836H284.421C286.05 55.836 287.298 55.42 288.165 54.588C289.066 53.756 289.517 52.6293 289.517 51.208C289.517 49.8907 289.084 48.7987 288.217 47.932C287.35 47.0653 286.102 46.632 284.473 46.632H276.673V40.288H285.409C287.836 40.288 289.968 40.756 291.805 41.692C293.642 42.5933 295.081 43.8587 296.121 45.488C297.161 47.1173 297.681 48.9893 297.681 51.104C297.681 53.2533 297.161 55.1427 296.121 56.772C295.081 58.3667 293.625 59.6147 291.753 60.516C289.881 61.4173 287.68 61.868 285.149 61.868H276.673ZM270.433 77V40.288H278.597V77H270.433ZM290.401 77L278.961 61.192L286.449 59.164L300.073 77H290.401ZM303.644 77V40.288H311.808V77H303.644ZM309.884 77V69.928H330.008V77H309.884ZM309.884 61.66V54.848H328.188V61.66H309.884ZM309.884 47.308V40.288H329.748V47.308H309.884Z" fill="white"/>
<g clip-path="url(#clip0_2265_2)">
<path d="M66.3442 71.929C54.031 71.9288 41.8094 71.9269 29.5879 71.9312C28.1061 71.9317 28.1099 71.7984 28.064 70.2704C27.979 67.44 27.0826 64.9537 25.5877 62.7967C23.3878 59.6223 20.6851 58.6156 17.4339 59.6391C14.1839 60.6622 12.0526 63.0723 11.2213 67.1685C10.922 68.6431 10.8744 70.1662 10.7795 71.8111C8.64387 71.0101 6.59968 70.249 5.6384 67.5481C4.82962 65.2757 4.95147 62.8378 5.71472 60.6726C6.40128 58.7251 6.77921 56.7783 6.93048 54.7094C7.04965 53.0796 7.71937 51.8809 8.72967 50.8686C11.039 48.555 13.4137 46.3527 15.816 44.1943C16.1992 43.8499 16.5698 43.5361 16.597 42.8261C16.6275 42.0276 17.2184 42.002 17.6591 41.9366C19.9678 41.5942 22.2757 41.2007 24.5937 41.0086C29.1442 40.6314 33.6995 40.3305 38.2558 40.0825C42.4457 39.8544 46.6398 39.9417 50.7323 41.2191C54.2532 42.3181 57.5453 44.2365 60.8473 46.0827C63.2612 47.4323 65.6025 48.9673 67.9623 50.4564C69.4422 51.3903 71.1169 51.4891 72.7208 51.7925C77.6038 52.7163 82.4701 53.7213 87.1461 55.7736C90.3638 57.1858 92.3263 60.0507 93.147 64.182C93.4598 65.7568 93.0209 67.212 92.8245 68.7049C92.7357 69.3801 92.6733 69.9682 92.9384 70.6309C93.2932 71.5177 93.0516 71.9216 92.212 71.9303C90.2592 71.9504 88.3057 71.8995 86.3535 71.9435C85.488 71.963 85.1938 71.5648 85.2413 70.4819C85.4065 66.7138 84.1766 63.7093 81.9011 61.2992C78.8596 58.0779 74.312 58.2064 71.3673 61.5804C69.4003 63.8343 68.1941 66.53 68.1224 69.9153C68.0799 71.9214 68.0932 71.9218 66.3442 71.929ZM37.351 42.3049C33.5817 42.4399 29.8355 42.9773 26.0785 43.3236C24.4842 43.4705 22.8895 43.68 21.31 43.9831C20.3784 44.1618 20.197 44.9251 20.8495 45.6881C22.7894 47.9566 25.0048 49.5799 27.6602 50.2076C29.1895 50.5692 30.7325 50.4151 32.2668 50.5378C34.9 50.7485 37.5432 50.7646 40.1818 50.8737C40.7415 50.8968 40.9959 50.6178 40.9525 49.8985C40.8205 47.7108 40.6931 45.5225 40.5865 43.3327C40.5511 42.6059 40.2996 42.2581 39.7067 42.2777C38.9837 42.3016 38.2601 42.2961 37.351 42.3049ZM52.8256 51.6062C57.6652 52.0213 62.5048 52.4364 67.4978 52.8647C67.1846 52.2488 66.8862 52.1008 66.6142 51.9158C62.5485 49.1492 58.4307 46.5182 54.0286 44.665C50.9485 43.3684 47.7881 42.5465 44.5359 42.3096C43.8303 42.2582 43.4357 42.5245 43.5802 43.5169C43.8776 45.5592 44.2028 47.5976 44.4319 49.6522C44.5504 50.7161 45.0503 51.0367 45.7711 51.0932C48.0624 51.2726 50.3548 51.4309 52.8256 51.6062ZM88.3698 58.0063C87.264 57.3878 86.115 57.3044 84.6848 57.4973C85.986 58.7925 87.1179 59.8834 88.2152 61.0263C88.7687 61.6029 89.1994 61.5182 89.6629 60.8896C90.1209 60.2683 89.9272 59.732 89.5503 59.2479C89.2255 58.8308 88.8448 58.4814 88.3698 58.0063ZM7.638 55.0716C7.57146 55.4147 7.44344 55.8052 7.92113 55.8117C8.54583 55.8201 9.20465 55.966 9.78764 55.7699C10.6897 55.4664 11.3668 54.6967 11.9039 53.3996C10.9284 53.3996 10.1482 53.4898 9.38731 53.3772C8.38825 53.2295 7.84564 53.6979 7.638 55.0716ZM28.5738 55.1431C27.6158 54.8625 26.6447 55.0545 25.6799 55.025C25.343 55.0147 25.0325 55.1411 25.0289 55.6549C25.0252 56.1691 25.3264 56.2907 25.67 56.2932C26.4833 56.299 27.2975 56.3247 28.1097 56.2867C28.6118 56.2632 28.9992 56.0417 28.5738 55.1431ZM46.0461 57.047C46.4859 57.041 46.926 57.0478 47.3652 57.0248C47.6672 57.009 47.9449 56.8893 47.9435 56.4289C47.9421 55.9916 47.6801 55.7909 47.3823 55.7829C46.5036 55.7594 45.6233 55.7585 44.7455 55.8045C44.4677 55.8191 44.1643 56.0141 44.198 56.4615C44.2249 56.818 44.4749 56.977 44.7413 57.0025C45.1164 57.0385 45.494 57.0345 46.0461 57.047Z" fill="#5FD3C7"/>
<path d="M70.7963 74.4083C67.9582 68.6988 70.0967 61.803 75.1324 60.229C78.9848 59.0248 83.0506 62.0535 83.9768 66.8175C84.9801 71.9778 82.5814 77.041 78.5539 78.1129C75.3881 78.9555 72.7966 77.7125 70.7963 74.4083ZM80.5941 65.888C79.5237 64.1121 78.1062 63.3506 76.3279 63.5219C74.2131 63.7256 72.3657 66.2055 72.2934 69.0087C72.2237 71.7114 73.9581 74.363 76.0079 74.715C77.9194 75.0433 79.5125 74.3528 80.6136 72.3401C81.7372 70.2864 81.6625 68.1484 80.5941 65.888Z" fill="#5FD3C7"/>
<path d="M12.9544 73.9056C10.5392 68.0641 12.6758 61.8388 17.58 60.2476C21.6619 58.9232 25.8338 62.4788 26.5602 67.6494C27.1322 71.7205 25.1896 76.2399 21.9652 77.7549C18.6306 79.3217 15.1817 77.92 12.9544 73.9056ZM14.9605 70.8098C15.0239 71.031 15.0749 71.2594 15.1527 71.4725C16.0547 73.9423 17.7916 75.0774 20.1012 74.7126C21.8091 74.4429 23.4516 72.4695 23.7492 70.3299C24.1082 67.7486 23.2198 65.3271 21.4235 64.1617C19.7309 63.0636 18.0498 63.2214 16.5362 64.6387C14.9346 66.1384 14.513 68.2324 14.9605 70.8098Z" fill="#5FD3C7"/>
</g>
<defs>
<clipPath id="clip0_2265_2">
<rect width="93.7778" height="117" fill="white"/>
</clipPath>
</defs>
</svg>
